<svg xmlns="http://www.w3.org/2000/svg" width="64" height="64" viewBox="0 0 64 64" fill="none">
  <defs>
    <linearGradient id="a" x1="14" y1="10" x2="52" y2="58" gradientUnits="userSpaceOnUse">
      <stop stop-color="#EDE7FF"/>
      <stop offset="0.5" stop-color="#BDA7FF"/>
      <stop offset="1" stop-color="#7A4DFF"/>
    </linearGradient>
  </defs>
  <rect x="6" y="6" width="52" height="52" rx="14" fill="#0F1116" stroke="rgba(255,255,255,0.10)"/>
  <path d="M32 16c-1 0-2 1-3 2L18 46c-1 2 0 4 2 4h5c1 0 2-1 2-2l2-5h10l2 5c0 1 1 2 2 2h5c2 0 3-2 2-4L35 18c-1-1-2-2-3-2Zm-1 20 3-8 3 8h-6Z" fill="url(#a)"/>
</svg>

